# Blender v2.79 (sub 0) OBJ File: ''
# www.blender.org
mtllib cake.mtl
o cakeSlice
v -0.090332 -0.047403 0.000451
v -0.090332 -0.047403 -0.000349
v 0.090332 -0.047403 -0.083701
v 0.090332 -0.047403 0.083392
v -0.090332 0.047403 0.000069
v 0.090332 0.047402 0.083670
v 0.090332 0.047402 -0.083567
v -0.090332 0.047403 0.000035
vt 0.000000 0.497200
vt 0.000000 0.502000
vt 1.000000 1.000000
vt 1.000000 0.001700
vt 0.000000 0.499500
vt 1.000000 -0.000000
vt 1.000000 0.999200
vt 0.000000 0.499700
vn -0.0000 -1.0000 -0.0000
vn 0.0000 1.0000 0.0000
vn -0.4192 0.0018 0.9079
vn -0.4172 -0.0027 0.9088
vn -0.4180 -0.0009 0.9084
vn -0.4200 0.0037 0.9075
vn 1.0000 -0.0000 0.0000
vn -0.4197 0.0020 -0.9077
vn -0.4189 0.0037 -0.9080
vn -0.4192 0.0031 -0.9079
vn -0.4200 0.0013 -0.9075
vn -1.0000 0.0000 0.0000
usemtl Material__31
s 1
f 1/1/1 2/2/1 3/3/1 4/4/1
f 5/5/2 6/6/2 7/7/2 8/8/2
f 1/1/3 4/4/4 6/6/5 5/5/6
f 4/4/7 3/3/7 7/7/7 6/6/7
f 3/3/8 2/2/9 8/8/10 7/7/11
f 2/2/12 1/1/12 5/5/12 8/8/12
