# Blender v2.79 (sub 0) OBJ File: ''
# www.blender.org
mtllib Sugar_cubes.mtl
o cube
v -0.125000 -0.144886 0.125000
v 0.125000 -0.144886 0.125000
v -0.125000 0.105114 0.125000
v 0.125000 0.105114 0.125000
v -0.125000 0.105114 -0.125000
v 0.125000 0.105114 -0.125000
v -0.125000 -0.144886 -0.125000
v 0.125000 -0.144886 -0.125000
vt 0.000000 0.000000
vt 1.000000 0.000000
vt 0.000000 1.000000
vt 1.000000 1.000000
vt 0.000000 0.000000
vt 1.000000 0.000000
vt 0.000000 1.000000
vt 1.000000 1.000000
vt 1.000000 1.000000
vt 0.000000 1.000000
vt 1.000000 0.000000
vt 0.000000 0.000000
vt 0.000000 0.000000
vt 1.000000 0.000000
vt 0.000000 1.000000
vt 1.000000 1.000000
vt 0.000000 0.000000
vt 0.000000 1.000000
vt 1.000000 0.000000
vt 1.000000 1.000000
vn 0.0000 -0.0000 1.0000
vn 0.0000 1.0000 0.0000
vn 0.0000 0.0000 -1.0000
vn 0.0000 -1.0000 -0.0000
vn 1.0000 0.0000 0.0000
vn -1.0000 0.0000 0.0000
usemtl cube
s 1
f 1/1/1 2/2/1 3/3/1
f 3/3/1 2/2/1 4/4/1
f 3/5/2 4/6/2 5/7/2
f 5/7/2 4/6/2 6/8/2
f 5/9/3 6/10/3 7/11/3
f 7/11/3 6/10/3 8/12/3
f 7/13/4 8/14/4 1/15/4
f 1/15/4 8/14/4 2/16/4
f 2/17/5 8/14/5 4/18/5
f 4/18/5 8/14/5 6/8/5
f 7/13/6 1/19/6 5/7/6
f 5/7/6 1/19/6 3/20/6
o cube.001
v 0.261071 -0.147694 0.330327
v 0.470738 -0.147694 0.194167
v 0.261071 0.102306 0.330327
v 0.470738 0.102306 0.194167
v 0.124911 0.102306 0.120659
v 0.334579 0.102306 -0.015501
v 0.124911 -0.147694 0.120659
v 0.334579 -0.147694 -0.015501
vt 0.000000 0.000000
vt 1.000000 0.000000
vt 0.000000 1.000000
vt 1.000000 1.000000
vt 0.000000 0.000000
vt 1.000000 0.000000
vt 0.000000 1.000000
vt 1.000000 1.000000
vt 1.000000 1.000000
vt 0.000000 1.000000
vt 1.000000 0.000000
vt 0.000000 0.000000
vt 0.000000 0.000000
vt 1.000000 0.000000
vt 0.000000 1.000000
vt 1.000000 1.000000
vt 0.000000 0.000000
vt 0.000000 1.000000
vt 1.000000 0.000000
vt 1.000000 1.000000
vn 0.5446 -0.0000 0.8387
vn 0.0000 1.0000 0.0000
vn -0.5446 0.0000 -0.8387
vn -0.0000 -1.0000 -0.0000
vn 0.8387 0.0000 -0.5446
vn -0.8387 0.0000 0.5446
usemtl cube.001
s 1
f 9/21/7 10/22/7 11/23/7
f 11/23/7 10/22/7 12/24/7
f 11/25/8 12/26/8 13/27/8
f 13/27/8 12/26/8 14/28/8
f 13/29/9 14/30/9 15/31/9
f 15/31/9 14/30/9 16/32/9
f 15/33/10 16/34/10 9/35/10
f 9/35/10 16/34/10 10/36/10
f 10/37/11 16/34/11 12/38/11
f 12/38/11 16/34/11 14/28/11
f 15/33/12 9/39/12 13/27/12
f 13/27/12 9/39/12 11/40/12
o cube.002
v -0.007033 0.103742 -0.024946
v 0.153664 0.103742 0.166565
v -0.007033 0.353742 -0.024946
v 0.153664 0.353742 0.166565
v 0.184478 0.353742 -0.185643
v 0.345175 0.353742 0.005869
v 0.184478 0.103742 -0.185643
v 0.345175 0.103742 0.005868
vt 0.000000 0.000000
vt 1.000000 0.000000
vt 0.000000 1.000000
vt 1.000000 1.000000
vt 0.000000 0.000000
vt 1.000000 0.000000
vt 0.000000 1.000000
vt 1.000000 1.000000
vt 1.000000 1.000000
vt 0.000000 1.000000
vt 1.000000 0.000000
vt 0.000000 0.000000
vt 0.000000 0.000000
vt 1.000000 0.000000
vt 0.000000 1.000000
vt 1.000000 1.000000
vt 0.000000 0.000000
vt 0.000000 1.000000
vt 1.000000 0.000000
vt 1.000000 1.000000
vn -0.7660 -0.0000 0.6428
vn -0.0000 1.0000 0.0000
vn 0.7660 0.0000 -0.6428
vn 0.0000 -1.0000 -0.0000
vn 0.6428 0.0000 0.7660
vn -0.6428 0.0000 -0.7660
usemtl cube.002
s 1
f 17/41/13 18/42/13 19/43/13
f 19/43/13 18/42/13 20/44/13
f 19/45/14 20/46/14 21/47/14
f 21/47/14 20/46/14 22/48/14
f 21/49/15 22/50/15 23/51/15
f 23/51/15 22/50/15 24/52/15
f 23/53/16 24/54/16 17/55/16
f 17/55/16 24/54/16 18/56/16
f 18/57/17 24/54/17 20/58/17
f 20/58/17 24/54/17 22/48/17
f 23/53/18 17/59/18 21/47/18
f 21/47/18 17/59/18 19/60/18
o cube.003
v 0.105963 -0.147694 -0.160907
v 0.266660 -0.147694 0.030605
v 0.105963 0.102306 -0.160907
v 0.266660 0.102306 0.030605
v 0.297474 0.102306 -0.321603
v 0.458171 0.102306 -0.130092
v 0.297474 -0.147694 -0.321603
v 0.458171 -0.147694 -0.130092
vt 0.000000 0.000000
vt 1.000000 0.000000
vt 0.000000 1.000000
vt 1.000000 1.000000
vt 0.000000 0.000000
vt 1.000000 0.000000
vt 0.000000 1.000000
vt 1.000000 1.000000
vt 1.000000 1.000000
vt 0.000000 1.000000
vt 1.000000 0.000000
vt 0.000000 0.000000
vt 0.000000 0.000000
vt 1.000000 0.000000
vt 0.000000 1.000000
vt 1.000000 1.000000
vt 0.000000 0.000000
vt 0.000000 1.000000
vt 1.000000 0.000000
vt 1.000000 1.000000
vn -0.7660 0.0000 0.6428
vn -0.0000 1.0000 0.0000
vn 0.7660 0.0000 -0.6428
vn 0.0000 -1.0000 -0.0000
vn 0.6428 0.0000 0.7660
vn -0.6428 -0.0000 -0.7660
usemtl cube.003
s 1
f 25/61/19 26/62/19 27/63/19
f 27/63/19 26/62/19 28/64/19
f 27/65/20 28/66/20 29/67/20
f 29/67/20 28/66/20 30/68/20
f 29/69/21 30/70/21 31/71/21
f 31/71/21 30/70/21 32/72/21
f 31/73/22 32/74/22 25/75/22
f 25/75/22 32/74/22 26/76/22
f 26/77/23 32/74/23 28/78/23
f 28/78/23 32/74/23 30/68/23
f 31/73/24 25/79/24 29/67/24
f 29/67/24 25/79/24 27/80/24
