# Blender v2.79 (sub 0) OBJ File: 'Sugar_cubes.obj'
# www.blender.org
mtllib Sugar_cube.mtl
o cube.001
v 0.122401 0.127172 0.125380
v 0.127185 -0.122781 0.124995
v 0.122769 0.127564 -0.124619
v 0.127553 -0.122389 -0.125004
v -0.127185 0.122781 -0.124995
v -0.122401 -0.127172 -0.125380
v -0.127553 0.122389 0.125004
v -0.122769 -0.127564 0.124619
vt 0.000000 0.000000
vt 1.000000 0.000000
vt 0.000000 1.000000
vt 1.000000 1.000000
vt 0.000000 0.000000
vt 1.000000 0.000000
vt 0.000000 1.000000
vt 1.000000 1.000000
vt 1.000000 1.000000
vt 0.000000 1.000000
vt 1.000000 0.000000
vt 0.000000 0.000000
vt 0.000000 0.000000
vt 1.000000 0.000000
vt 0.000000 1.000000
vt 1.000000 1.000000
vt 0.000000 0.000000
vt 0.000000 1.000000
vt 1.000000 0.000000
vt 1.000000 1.000000
vn 0.9998 0.0191 0.0015
vn 0.0015 0.0016 -1.0000
vn -0.9998 -0.0191 -0.0015
vn -0.0015 -0.0016 1.0000
vn 0.0191 -0.9998 -0.0015
vn -0.0191 0.9998 0.0015
usemtl cube.001
s 1
f 1/1/1 2/2/1 3/3/1
f 3/3/1 2/2/1 4/4/1
f 3/5/2 4/6/2 5/7/2
f 5/7/2 4/6/2 6/8/2
f 5/9/3 6/10/3 7/11/3
f 7/11/3 6/10/3 8/12/3
f 7/13/4 8/14/4 1/15/4
f 1/15/4 8/14/4 2/16/4
f 2/17/5 8/14/5 4/18/5
f 4/18/5 8/14/5 6/8/5
f 7/13/6 1/19/6 5/7/6
f 5/7/6 1/19/6 3/20/6
